<?xml version="1.0" standalone="no"?>
<!DOCTYPE svg PUBLIC "-//W3C//DTD SVG 20010904//EN"
 "http://www.w3.org/TR/2001/REC-SVG-20010904/DTD/svg10.dtd">
<svg version="1.0" xmlns="http://www.w3.org/2000/svg"
 width="1350.000000pt" height="756.000000pt" viewBox="0 0 1350.000000 756.000000"
 preserveAspectRatio="xMidYMid meet">
<metadata>
Created by potrace 1.10, written by Peter Selinger 2001-2011
</metadata>
<g transform="translate(0.000000,756.000000) scale(0.100000,-0.100000)"
fill="#000000" stroke="none">
<path d="M6667 6360 c-27 -5 -59 -16 -72 -24 -13 -9 -31 -16 -39 -16 -8 0 -41
-11 -73 -24 -32 -13 -85 -32 -118 -44 -33 -11 -85 -30 -115 -42 -60 -24 -200
-73 -269 -96 -25 -8 -60 -23 -78 -34 -19 -11 -43 -20 -53 -20 -10 0 -25 -7
-34 -15 -8 -8 -20 -15 -28 -15 -20 0 -118 -43 -118 -52 0 -13 35 -9 56 7 10 8
31 15 45 15 14 0 34 7 45 15 10 8 30 15 44 15 14 0 34 6 45 14 11 7 34 16 50
18 36 7 90 25 127 44 14 8 37 14 50 14 13 0 28 4 34 9 5 4 43 19 84 31 41 13
79 27 85 32 5 4 18 8 30 8 11 1 38 9 60 20 22 11 50 19 62 20 12 0 24 4 27 9
4 5 24 12 46 16 22 4 42 10 45 15 3 4 21 11 42 15 20 4 46 13 57 21 28 19 49
18 93 -6 21 -11 48 -20 60 -20 12 0 25 -4 28 -10 3 -5 14 -10 23 -10 9 0 29
-6 44 -14 15 -8 41 -17 58 -21 17 -4 43 -13 58 -21 15 -8 35 -14 44 -14 9 0
20 -4 23 -10 3 -5 16 -10 28 -10 12 0 35 -7 51 -15 15 -8 36 -15 45 -15 9 0
29 -7 45 -15 15 -8 37 -15 48 -15 11 0 32 -6 46 -14 37 -19 91 -37 127 -44 17
-2 39 -11 50 -18 11 -8 34 -14 51 -14 17 0 37 -7 44 -15 7 -8 22 -15 34 -15
11 0 30 -7 40 -15 11 -8 34 -15 52 -15 19 0 34 -6 38 -15 5 -15 56 -22 56 -7
-1 10 -155 82 -177 82 -10 0 -27 7 -37 15 -11 8 -30 15 -42 15 -12 0 -27 6
-33 13 -6 8 -37 22 -68 32 -32 10 -72 24 -90 32 -17 7 -36 13 -42 13 -6 0 -34
11 -63 24 -29 13 -80 31 -113 41 -33 9 -64 21 -70 25 -5 4 -34 15 -63 23 -28
9 -62 23 -74 31 -12 9 -34 16 -48 16 -14 0 -45 10 -70 21 -25 12 -56 23 -70
25 -63 11 -119 12 -163 4z"/>
<path d="M6665 6186 c-16 -8 -49 -19 -72 -25 -24 -6 -62 -16 -85 -22 -24 -6
-52 -15 -63 -20 -11 -5 -38 -13 -60 -18 -90 -22 -131 -34 -147 -42 -9 -5 -35
-12 -57 -15 -23 -4 -46 -13 -52 -20 -6 -8 -28 -14 -48 -14 -20 -1 -47 -7 -61
-15 -14 -8 -39 -14 -56 -15 -17 0 -37 -7 -44 -15 -7 -8 -27 -15 -44 -15 -17 0
-41 -6 -52 -14 -11 -8 -38 -16 -59 -18 -21 -2 -40 -9 -43 -15 -5 -18 104 -15
119 3 6 8 26 14 43 14 17 0 74 14 126 30 52 17 118 35 145 40 28 6 79 19 115
29 125 37 155 45 175 47 33 4 139 35 150 44 6 5 47 14 93 21 72 11 86 11 116
-4 19 -8 43 -13 53 -11 11 3 25 -2 32 -10 8 -9 23 -16 34 -16 11 0 45 -7 76
-16 31 -9 79 -22 106 -29 28 -8 80 -23 117 -35 37 -11 95 -27 130 -35 95 -22
151 -37 168 -45 9 -4 36 -11 60 -15 25 -4 57 -16 72 -27 17 -12 36 -17 48 -13
15 5 20 2 20 -12 0 -14 -12 -22 -42 -31 -63 -17 -109 -60 -112 -103 -2 -20 -6
-42 -11 -48 -10 -16 -13 -101 -4 -107 4 -2 10 -32 13 -66 20 -189 29 -177 37
45 4 138 9 179 23 205 l18 33 75 -6 c69 -7 76 -6 95 15 16 17 27 21 52 16 17
-4 34 -13 39 -21 10 -19 61 -19 81 0 8 8 28 15 45 15 l31 0 -6 128 c-7 133
-19 174 -30 103 -4 -23 -11 -44 -15 -47 -5 -3 -9 -16 -9 -28 0 -13 -7 -29 -15
-36 -9 -7 -13 -20 -10 -28 14 -38 -60 -58 -101 -27 -10 8 -38 15 -60 15 -24 0
-47 6 -54 15 -7 8 -29 15 -49 15 -21 0 -46 7 -57 15 -10 8 -35 15 -55 15 -20
0 -42 7 -49 15 -7 8 -27 15 -44 15 -18 0 -41 7 -52 15 -10 8 -32 15 -47 15
-16 0 -38 6 -50 12 -21 12 -69 26 -167 50 -25 5 -49 14 -55 18 -5 4 -29 11
-52 15 -24 4 -45 10 -48 15 -3 4 -25 11 -50 14 -25 4 -57 14 -73 22 -15 7 -37
14 -48 14 -12 0 -35 7 -50 15 -36 19 -109 19 -149 1z"/>
<path d="M5342 6067 c-6 -6 -13 -24 -17 -40 -4 -15 -10 -27 -14 -27 -31 0 -33
-59 -36 -1124 -4 -1122 -4 -1136 38 -1200 15 -22 101 -100 152 -138 32 -24 40
-31 111 -96 23 -20 65 -55 94 -77 29 -22 71 -58 94 -81 22 -22 60 -53 84 -68
51 -34 157 -150 192 -209 14 -24 36 -58 50 -77 14 -19 34 -48 45 -66 11 -17
56 -85 100 -150 44 -66 83 -127 87 -136 4 -10 26 -42 48 -71 22 -30 40 -58 40
-64 0 -6 16 -31 35 -56 19 -25 35 -50 35 -56 0 -6 8 -15 19 -20 10 -6 26 -27
35 -48 9 -21 20 -45 25 -53 5 -8 13 -33 19 -55 16 -63 52 -155 82 -205 5 -8
11 -23 14 -32 3 -10 10 -18 16 -18 13 0 13 97 0 105 -5 3 -10 14 -10 23 0 9
-6 29 -14 44 -8 15 -17 41 -21 58 -4 17 -13 43 -21 58 -8 15 -14 33 -14 41 0
7 -12 30 -27 50 -16 20 -33 45 -40 56 -54 88 -88 141 -93 145 -3 3 -17 23 -30
45 -13 22 -27 42 -30 45 -3 3 -17 23 -30 45 -13 22 -27 42 -30 45 -3 3 -17 23
-30 45 -13 22 -27 42 -30 45 -3 3 -17 23 -30 45 -13 22 -27 42 -30 45 -3 3
-17 23 -30 45 -13 22 -27 42 -30 45 -8 7 -42 60 -64 100 -10 19 -22 37 -25 40
-4 3 -18 23 -30 45 -22 37 -97 115 -110 115 -3 0 -22 15 -42 33 -49 44 -80 70
-105 87 -19 14 -83 68 -168 142 -17 15 -34 28 -37 28 -3 0 -17 10 -31 23 -28
25 -93 80 -156 132 -24 19 -48 35 -53 35 -6 0 -8 453 -7 1140 2 920 5 1140 15
1144 7 3 13 14 13 24 0 11 7 25 15 32 8 7 15 16 15 21 0 13 -26 11 -38 -4z"/>
<path d="M8100 6077 c0 -4 33 -68 44 -85 4 -7 8 -522 7 -1145 -1 -1093 -1
-1131 -19 -1142 -17 -9 -106 -83 -151 -125 -9 -8 -39 -33 -66 -55 -48 -39 -96
-79 -119 -100 -6 -6 -33 -28 -61 -50 -27 -22 -55 -44 -61 -50 -45 -40 -77 -66
-127 -104 -41 -32 -75 -70 -117 -135 -32 -50 -63 -95 -67 -101 -5 -5 -20 -28
-33 -50 -13 -22 -28 -41 -32 -43 -4 -2 -8 -7 -8 -12 0 -8 -59 -102 -77 -125
-5 -5 -20 -28 -33 -50 -13 -22 -28 -44 -33 -50 -4 -5 -31 -46 -59 -90 -28 -44
-88 -137 -134 -206 -46 -69 -86 -138 -90 -153 -3 -14 -10 -29 -15 -32 -5 -3
-9 -12 -9 -21 0 -8 -6 -29 -14 -46 -39 -90 -60 -207 -36 -207 6 0 10 5 10 10
0 6 11 27 24 48 13 20 30 55 36 77 25 79 86 221 99 230 5 2 19 24 31 47 12 24
37 66 55 93 18 28 76 116 128 197 53 80 101 149 107 153 6 4 16 17 21 28 11
26 29 54 84 132 22 32 45 64 50 73 6 9 29 45 53 80 23 35 42 67 42 72 0 5 11
12 24 16 13 3 52 32 87 65 35 32 83 71 106 86 24 15 45 34 48 44 3 9 14 20 24
25 11 5 41 28 68 51 26 24 77 66 113 94 170 134 195 174 199 314 4 150 6 814
4 1270 -1 237 -1 439 0 450 0 11 0 108 -1 216 l-2 196 -37 57 c-21 31 -43 56
-50 56 -7 0 -13 -1 -13 -3z"/>
<path d="M5437 6030 c-4 -25 -9 -84 -13 -132 l-6 -88 34 0 c18 0 42 -7 52 -15
26 -20 43 -19 73 5 32 25 65 25 88 0 15 -17 26 -19 94 -14 l76 6 19 -34 c17
-27 21 -59 25 -190 6 -149 14 -199 25 -147 21 102 25 201 12 282 -5 34 -17 58
-39 81 -35 35 -83 60 -98 50 -6 -3 -21 5 -35 19 -36 36 -144 48 -144 16 0 -16
-78 -10 -92 6 -7 9 -19 22 -25 30 -7 7 -13 24 -13 37 -1 13 -7 48 -14 78 l-13
55 -6 -45z"/>
<path d="M5600 5956 c0 -9 40 -13 46 -5 3 5 -6 9 -20 9 -14 0 -26 -2 -26 -4z"/>
<path d="M5457 5713 c-18 -33 -15 -63 9 -93 37 -44 63 -37 80 20 23 76 21 80
-35 80 -28 0 -52 -3 -54 -7z"/>
<path d="M5697 5713 c-4 -3 -7 -28 -7 -55 0 -49 13 -61 38 -36 18 18 21 -3 24
-132 l3 -115 33 0 c32 -1 41 8 22 20 -17 11 -12 96 7 117 11 13 14 22 6 26
-19 13 -43 70 -43 104 0 19 -7 44 -16 56 -14 21 -53 30 -67 15z"/>
<path d="M7718 5706 c-9 -8 -18 -38 -22 -67 -4 -29 -14 -65 -22 -82 -12 -23
-13 -35 -4 -56 8 -19 8 -40 1 -72 -16 -67 -15 -71 22 -67 l32 3 3 120 c3 145
5 154 32 130 17 -15 20 -16 25 -3 4 9 5 35 3 59 -3 39 -6 44 -29 47 -15 2 -33
-4 -41 -12z"/>
<path d="M7915 5711 c-9 -15 30 -116 46 -119 8 -1 29 12 47 29 33 31 36 54 10
87 -12 14 -94 17 -103 3z"/>
<path d="M7847 5579 c-36 -20 -47 -63 -47 -178 0 -99 2 -111 20 -121 12 -6 19
-20 19 -38 0 -15 5 -85 12 -157 17 -175 14 -213 -21 -303 -40 -103 -68 -248
-52 -264 16 -16 32 5 32 43 0 14 7 34 15 45 8 10 15 30 15 44 0 14 7 38 15 54
8 15 15 37 15 48 0 10 7 33 16 50 14 26 15 60 10 237 -11 381 -18 536 -24 543
-4 4 -15 2 -25 -3z"/>
<path d="M5606 5568 c-4 -13 -10 -146 -23 -535 -5 -166 -4 -197 11 -227 9 -18
16 -45 16 -59 0 -14 7 -38 15 -53 8 -16 15 -36 15 -45 0 -9 7 -30 15 -45 8
-16 15 -41 15 -56 0 -16 9 -33 22 -42 38 -27 42 3 13 91 -14 43 -25 89 -25
104 0 15 -6 29 -13 32 -18 7 -38 109 -39 197 -1 118 20 333 35 342 19 11 17
234 -3 273 -16 32 -47 45 -54 23z"/>
<path d="M5423 4890 c2 -358 6 -652 8 -653 2 -2 29 -15 59 -31 30 -15 75 -39
99 -53 31 -17 52 -23 72 -19 21 4 47 -4 97 -31 l69 -36 49 16 c27 8 76 19 109
22 55 6 66 4 115 -22 30 -16 84 -40 118 -53 35 -13 66 -29 69 -37 7 -18 22
-16 65 6 39 19 40 31 3 31 -13 0 -28 6 -34 14 -7 8 -23 17 -36 20 -26 7 -125
112 -125 134 0 7 14 25 30 39 30 25 44 79 18 71 -20 -7 -77 -91 -77 -115 -1
-12 -4 -24 -9 -26 -4 -3 -79 -6 -167 -8 -146 -2 -168 0 -252 24 -51 14 -103
33 -115 41 -12 9 -29 16 -38 16 -44 1 -72 62 -70 153 1 27 -3 54 -9 60 -15 18
-1 107 16 107 16 0 55 -37 116 -109 35 -42 49 -43 28 -3 -5 9 -20 38 -33 64
-12 25 -38 73 -55 106 l-33 60 -5 214 c-4 117 -10 263 -16 323 -5 61 -9 151
-9 201 0 75 -3 94 -18 107 -45 41 -45 55 -39 -633z"/>
<path d="M8011 5521 c-6 -11 -11 -57 -11 -103 0 -46 -4 -121 -10 -168 -5 -47
-11 -161 -14 -255 -5 -186 -23 -352 -41 -375 -6 -8 -21 -36 -34 -62 -12 -26
-26 -50 -32 -53 -5 -4 -9 -13 -9 -22 0 -9 -7 -24 -16 -34 -26 -28 -6 -43 22
-17 13 13 24 28 24 33 2 27 79 83 99 70 15 -9 20 -188 6 -215 -31 -59 -94 -99
-200 -125 -27 -7 -76 -20 -107 -29 -39 -10 -76 -14 -115 -9 -32 3 -89 6 -126
5 -67 0 -69 0 -79 29 -5 16 -14 29 -19 29 -5 0 -23 23 -40 50 -35 56 -49 63
-49 23 1 -18 11 -37 30 -53 36 -29 37 -41 8 -83 -32 -45 -68 -76 -105 -93 -17
-7 -34 -18 -38 -24 -3 -5 -17 -10 -30 -10 -41 0 -36 -16 10 -28 39 -10 48 -9
87 11 23 13 66 31 93 41 28 10 65 28 83 39 28 17 44 19 99 13 36 -4 78 -13 94
-21 33 -18 71 -19 86 -4 24 24 128 68 137 59 14 -14 42 -12 58 3 7 6 49 30 93
52 44 22 82 41 85 43 3 2 5 106 5 230 1 125 2 416 4 647 2 413 2 420 -18 423
-12 2 -24 -5 -30 -17z"/>
<path d="M6491 5229 c-87 -39 -159 -128 -185 -228 -14 -57 -14 -441 1 -560 7
-51 7 -92 2 -103 -5 -10 -13 -27 -19 -38 -25 -50 -2 -121 58 -177 25 -24 53
-44 61 -45 9 -1 24 -2 33 -3 9 0 25 -8 35 -16 23 -19 129 -60 137 -52 6 6 -40
53 -52 53 -9 1 -61 56 -101 107 -46 60 -91 148 -91 178 0 14 -7 40 -16 56 -13
26 -15 73 -12 325 2 183 7 297 13 302 6 4 22 25 36 47 31 47 92 111 133 141
40 29 20 37 -33 13z"/>
<path d="M6936 5242 c-3 -6 -1 -14 5 -17 15 -10 25 3 12 16 -7 7 -13 7 -17 1z"/>
<path d="M6976 5221 c-3 -5 15 -30 40 -57 26 -27 58 -67 72 -89 15 -22 31 -43
35 -46 28 -20 29 -569 1 -638 -8 -18 -14 -42 -14 -53 0 -33 -40 -110 -90 -173
-50 -63 -125 -135 -141 -135 -5 0 -9 -7 -9 -15 0 -19 9 -19 34 0 11 8 27 15
35 15 9 0 38 11 65 25 27 14 57 25 67 25 24 0 119 88 119 110 0 11 5 22 10 25
12 8 13 75 1 94 -7 11 -10 11 -17 0 -14 -21 -22 60 -10 96 6 17 10 151 11 310
0 338 -2 346 -109 450 -65 62 -88 75 -100 56z"/>
<path d="M6600 5180 c0 -5 -5 -10 -11 -10 -17 0 -78 -68 -85 -95 -3 -14 -10
-28 -15 -31 -14 -9 -10 -108 6 -147 8 -20 15 -52 15 -72 0 -19 4 -35 10 -35
11 0 21 34 19 65 -1 11 2 63 6 115 7 80 13 105 41 158 19 34 29 62 24 62 -6 0
-10 -4 -10 -10z"/>
<path d="M6893 5153 c3 -10 10 -31 15 -48 27 -79 32 -106 32 -162 0 -80 11
-154 21 -147 5 3 9 20 9 37 1 18 7 43 15 57 21 37 19 129 -5 182 -25 58 -101
128 -87 81z"/>
<path d="M6417 4895 c-3 -11 -4 -121 -2 -245 3 -249 7 -266 70 -335 47 -52
121 -161 144 -212 6 -13 15 -23 21 -23 5 0 10 -7 10 -15 0 -8 5 -15 10 -15 13
0 13 6 -9 71 -32 94 -61 145 -133 233 -16 19 -28 44 -28 56 0 21 3 22 55 15
35 -4 55 -3 55 4 0 18 31 41 54 41 13 0 29 7 36 15 16 19 49 19 74 0 11 -8 30
-15 42 -15 12 0 36 -12 53 -26 26 -21 34 -24 46 -14 12 10 20 9 40 -4 14 -9
25 -20 25 -24 0 -4 -18 -32 -40 -62 -22 -30 -49 -73 -61 -95 -12 -22 -26 -46
-33 -54 -6 -8 -16 -32 -22 -55 -7 -23 -15 -51 -19 -63 -5 -15 -3 -23 4 -23 6
0 11 6 11 14 0 8 7 16 15 20 8 3 15 12 15 20 0 8 6 19 13 23 12 8 15 12 66 98
16 28 48 68 70 90 23 21 41 46 41 55 0 9 5 21 12 28 8 8 13 86 16 246 5 233 1
286 -18 256 -6 -8 -10 -25 -10 -38 0 -32 -28 -82 -45 -82 -18 0 -19 -12 -3
-28 17 -17 -8 -41 -78 -73 -34 -16 -64 -35 -68 -44 -20 -53 11 -59 82 -15 27
17 54 30 61 30 6 0 11 5 11 10 0 22 40 9 46 -15 13 -50 -71 -165 -120 -165
-33 0 -130 37 -135 51 -12 36 -71 68 -71 38 0 -29 -103 -89 -154 -89 -28 0
-42 9 -79 50 -46 51 -63 100 -45 133 8 16 12 15 51 -8 68 -40 120 -65 134 -65
19 0 16 44 -4 62 -10 8 -38 21 -62 28 -51 16 -80 52 -61 75 10 12 9 16 -6 21
-27 10 -53 45 -54 74 -1 14 -5 34 -9 45 -8 20 -8 20 -14 0z"/>
<path d="M5424 3958 l3 -181 39 -35 c21 -18 57 -50 79 -70 23 -21 52 -44 65
-53 14 -9 41 -32 61 -50 44 -42 80 -72 144 -124 27 -22 57 -47 65 -55 19 -19
130 -115 152 -132 15 -12 68 -87 144 -203 18 -27 37 -54 41 -60 5 -5 20 -28
33 -50 13 -22 28 -44 33 -50 18 -23 77 -117 77 -125 0 -5 3 -10 8 -12 11 -5
52 -66 52 -78 0 -5 3 -10 8 -10 4 0 19 -21 35 -48 42 -71 50 -84 78 -122 14
-19 29 -42 32 -50 4 -8 16 -28 27 -45 11 -16 23 -37 27 -45 3 -8 9 -17 13 -20
24 -21 60 -104 75 -178 11 -51 35 -37 57 33 20 67 58 145 70 145 5 0 8 5 8 10
0 12 41 73 53 78 4 2 7 10 7 17 0 8 6 20 14 28 8 7 23 29 33 48 10 19 39 66
64 104 72 109 152 234 193 300 20 33 56 87 80 120 23 33 65 92 92 131 45 65
138 153 339 319 27 22 53 45 59 50 21 19 92 81 145 125 30 25 70 59 90 77 l36
32 2 180 c1 102 -2 181 -7 181 -10 0 -98 -74 -118 -99 -54 -70 -112 -152 -112
-158 0 -5 -10 -20 -22 -33 -27 -30 -39 -47 -142 -200 -43 -63 -98 -140 -122
-171 -24 -32 -44 -60 -44 -64 0 -4 -19 -32 -43 -63 -23 -31 -51 -70 -62 -87
-15 -25 -50 -64 -175 -193 -8 -8 -13 -27 -12 -41 2 -16 -7 -42 -22 -64 -15
-21 -26 -41 -26 -46 0 -4 -25 -41 -55 -82 -30 -41 -55 -81 -55 -90 0 -9 -18
-36 -41 -60 -23 -24 -42 -48 -43 -54 -4 -20 -47 -95 -54 -95 -4 0 -13 -15 -20
-34 -7 -18 -21 -41 -32 -51 -11 -10 -20 -23 -20 -30 0 -6 -11 -22 -25 -35 -14
-13 -25 -30 -25 -37 0 -7 -11 -19 -25 -25 -22 -10 -29 -8 -55 17 -17 16 -30
36 -30 45 0 10 -12 33 -27 53 -57 74 -120 169 -158 238 -11 21 -41 68 -67 105
-118 171 -154 235 -144 261 3 8 -33 54 -82 106 -48 50 -109 124 -135 162 -26
39 -75 108 -108 155 -33 47 -80 114 -105 150 -24 36 -72 103 -105 150 -33 47
-74 106 -91 133 -16 26 -33 47 -37 47 -3 0 -15 16 -25 35 -21 38 -138 155
-155 155 -7 0 -10 -58 -7 -182z m141 -55 c26 -32 55 -74 65 -93 10 -19 32 -48
49 -64 17 -16 34 -45 37 -63 3 -18 10 -36 15 -39 14 -8 11 -31 -5 -37 -8 -3
-39 17 -73 47 -32 29 -68 58 -81 65 -36 19 -79 87 -87 136 -8 55 2 105 20 105
7 0 34 -26 60 -57z m2429 26 c10 -51 7 -86 -9 -99 -8 -7 -15 -20 -15 -30 0
-10 -17 -32 -37 -50 -21 -17 -54 -46 -75 -63 -47 -41 -95 -77 -102 -77 -13 0
-5 58 9 70 8 7 15 20 15 29 0 10 18 35 40 57 22 21 40 44 40 50 0 23 101 144
120 144 4 0 10 -14 14 -31z"/>
<path d="M6190 3960 c-8 -5 -28 -10 -43 -10 -16 0 -56 -7 -90 -15 -34 -8 -84
-17 -110 -21 -69 -8 -72 -24 -18 -109 26 -40 47 -80 111 -205 30 -58 56 -107
59 -110 4 -3 31 -54 61 -115 30 -60 60 -116 67 -123 7 -7 13 -20 13 -28 0 -8
4 -14 9 -14 5 0 14 -13 20 -30 5 -16 15 -30 20 -30 6 0 11 -7 11 -15 0 -16 15
-20 24 -7 2 4 -4 27 -15 51 -10 24 -19 48 -19 55 0 6 -38 88 -85 181 -46 94
-86 180 -88 192 -2 12 -10 30 -19 40 -9 10 -24 34 -33 53 -10 19 -21 37 -25
40 -14 10 -30 49 -30 74 0 31 43 61 99 71 20 4 52 15 71 26 19 10 47 24 63 31
15 7 27 16 27 20 0 11 -62 10 -80 -2z"/>
<path d="M7200 3961 c0 -6 6 -11 13 -11 6 0 35 -12 62 -25 28 -14 58 -25 67
-25 9 0 20 -4 23 -10 3 -5 16 -10 29 -10 12 0 32 -11 45 -24 19 -20 21 -28 12
-65 -5 -23 -16 -50 -23 -59 -18 -22 -93 -174 -112 -230 -9 -24 -24 -56 -35
-71 -11 -15 -34 -63 -51 -107 -17 -43 -38 -84 -47 -91 -10 -8 -13 -20 -9 -36
3 -14 -1 -32 -10 -46 -12 -17 -13 -26 -5 -34 9 -9 13 -6 17 11 4 12 10 22 15
22 5 0 14 10 19 23 6 12 24 47 42 77 31 55 91 167 186 350 27 52 64 124 83
160 19 36 40 71 46 78 16 16 28 61 19 69 -3 3 -36 10 -73 14 -38 4 -102 15
-143 25 -105 23 -170 28 -170 15z"/>
<path d="M7240 3700 c0 -5 7 -10 15 -10 8 0 15 5 15 10 0 6 -7 10 -15 10 -8 0
-15 -4 -15 -10z"/>
<path d="M7165 3693 c-16 -3 -34 -8 -40 -13 -5 -4 -30 -11 -55 -15 -25 -4 -54
-14 -65 -21 -11 -8 -31 -14 -45 -14 -15 0 -51 -12 -81 -27 -64 -31 -173 -40
-229 -19 -122 46 -258 85 -278 80 -30 -8 -23 -28 11 -32 14 -2 31 -10 37 -18
7 -8 21 -14 32 -14 11 0 32 -6 46 -14 56 -29 120 -56 131 -56 6 0 23 -8 38
-17 32 -21 113 -22 144 -1 14 8 39 19 57 22 17 4 32 11 32 16 0 5 15 12 33 15
17 4 41 14 52 21 11 8 27 14 36 14 10 0 30 7 46 14 15 8 35 17 43 20 8 3 22
10 30 15 8 6 27 12 41 15 26 6 50 37 26 35 -7 -1 -25 -4 -42 -6z"/>
<path d="M6272 3678 c3 -7 19 -14 37 -16 24 -3 32 0 29 10 -3 7 -19 14 -37 16
-24 3 -32 0 -29 -10z"/>
<path d="M6208 3610 c12 -11 32 -25 44 -30 33 -14 58 -31 88 -60 14 -14 48
-36 74 -49 26 -14 59 -40 73 -58 14 -18 30 -33 35 -33 11 0 50 -30 125 -97 27
-24 52 -43 57 -43 35 0 -55 151 -112 187 -15 10 -29 20 -32 23 -3 3 -39 23
-80 43 -41 21 -82 42 -90 46 -60 32 -80 41 -90 41 -6 0 -18 7 -26 15 -9 8 -24
15 -35 15 -10 0 -19 5 -19 10 0 6 -8 10 -17 10 -14 0 -13 -3 5 -20z"/>
<path d="M7260 3620 c0 -5 -11 -10 -25 -10 -14 0 -28 -7 -31 -15 -4 -8 -17
-15 -29 -15 -13 0 -27 -5 -30 -11 -4 -5 -17 -14 -28 -20 -12 -5 -29 -13 -37
-18 -8 -5 -35 -19 -60 -30 -101 -47 -147 -80 -192 -136 -26 -32 -50 -71 -53
-86 -4 -19 -13 -29 -25 -29 -26 0 -35 -19 -14 -27 10 -4 22 0 29 10 7 10 17
17 23 17 10 0 52 34 124 100 59 55 77 70 84 70 4 0 31 16 60 35 29 19 57 35
63 35 5 0 19 14 31 30 12 17 28 30 36 30 8 0 17 7 20 15 4 8 14 15 25 15 10 0
22 6 26 13 4 8 17 19 28 25 19 11 19 11 -2 12 -13 0 -23 -4 -23 -10z"/>
<path d="M6916 3255 c-3 -13 -19 -44 -35 -67 -15 -24 -31 -54 -34 -68 -4 -14
-31 -52 -62 -84 -54 -58 -56 -58 -75 -41 -11 10 -20 26 -20 35 0 10 -7 23 -15
30 -8 7 -15 19 -15 27 0 7 -7 16 -15 19 -8 4 -15 12 -15 20 0 7 -6 17 -14 21
-8 4 -16 19 -18 32 -1 14 -9 26 -15 29 -18 5 -16 -33 2 -52 8 -8 15 -25 15
-37 0 -32 38 -107 61 -120 20 -10 27 -63 9 -74 -6 -3 0 -21 13 -43 13 -20 26
-45 30 -54 3 -10 15 -18 26 -18 27 0 78 97 63 121 -15 24 -5 54 23 69 13 7 27
26 30 41 4 16 11 31 16 34 5 4 9 17 9 31 0 14 7 32 15 40 8 9 15 26 15 38 0
13 7 29 15 36 17 14 20 46 6 54 -5 3 -12 -5 -15 -19z"/>
<path d="M6490 3152 c0 -62 56 -301 86 -368 17 -38 36 -60 76 -87 75 -52 115
-49 183 14 17 15 40 36 52 46 21 18 64 149 78 238 4 22 10 54 15 70 18 66 20
95 6 95 -16 0 -26 -21 -26 -54 0 -12 -7 -31 -15 -42 -8 -10 -15 -31 -15 -45 0
-14 -7 -34 -15 -45 -8 -10 -15 -30 -15 -44 0 -14 -7 -38 -15 -54 -8 -15 -15
-38 -15 -51 0 -22 -110 -145 -130 -145 -21 0 -127 116 -133 145 -9 49 -29 118
-43 152 -8 17 -14 40 -14 50 0 11 -7 28 -15 39 -8 10 -15 31 -15 46 0 33 -9
58 -21 58 -5 0 -9 -8 -9 -18z"/>
</g>
</svg>
